<svg width="50" height="256" viewBox="0 0 50 256" fill="none" xmlns="http://www.w3.org/2000/svg">
<g id="Frame">
<g id="Group 12">
<mask id="mask0_175_614" style="mask-type:alpha" maskUnits="userSpaceOnUse" x="1" y="0" width="48" height="256">
<g id="thermometer">
<path id="Vector" d="M37 11.8C37 5.28304 31.6274 0 25 0C18.3726 0 13 5.28304 13 11.8V224.2C13 230.717 18.3726 236 25 236C31.6274 236 37 230.717 37 224.2V11.8Z" fill="#333333"/>
<path id="Vector_2" d="M31 11.8947C31 8.63916 28.3137 6 25 6C21.6863 6 19 8.63916 19 11.8947V224.105C19 227.361 21.6863 230 25 230C28.3137 230 31 227.361 31 224.105V11.8947Z" fill="black"/>
<path id="Vector_3" d="M30 151C30 148.239 27.7614 146 25 146C22.2386 146 20 148.239 20 151V226C20 228.761 22.2386 231 25 231C27.7614 231 30 228.761 30 226V151Z" fill="#7547D0"/>
<path id="Vector_4" d="M25 256C36.0457 256 45 247.046 45 236C45 224.954 36.0457 216 25 216C13.9543 216 5 224.954 5 236C5 247.046 13.9543 256 25 256Z" fill="#333333"/>
<path id="Vector_5" d="M25 251C33.2843 251 40 244.284 40 236C40 227.716 33.2843 221 25 221C16.7157 221 10 227.716 10 236C10 244.284 16.7157 251 25 251Z" fill="#7547D0"/>
<g id="Group 7">
<path id="Vector_6" d="M1 220.5H8" stroke="#666666" stroke-width="0.5"/>
<path id="Vector_7" d="M1 213H8" stroke="#666666" stroke-width="0.5"/>
<path id="Vector_8" d="M1 205.5H8" stroke="#666666" stroke-width="0.5"/>
<path id="Vector_9" d="M1 198H8" stroke="#666666" stroke-width="0.5"/>
<path id="Vector_10" d="M1 190.5H8" stroke="#666666" stroke-width="0.5"/>
<path id="Vector_11" d="M1 183H8" stroke="#666666" stroke-width="0.5"/>
<path id="Vector_12" d="M1 175.5H8" stroke="#666666" stroke-width="0.5"/>
<path id="Vector_13" d="M1 168H8" stroke="#666666" stroke-width="0.5"/>
<path id="Vector_14" d="M1 160.5H8" stroke="#666666" stroke-width="0.5"/>
<path id="Vector_15" d="M1 153H8" stroke="#666666" stroke-width="0.5"/>
<path id="Vector_16" d="M1 145.5H8" stroke="#666666" stroke-width="0.5"/>
<path id="Vector_17" d="M1 138H8" stroke="#666666" stroke-width="0.5"/>
<path id="Vector_18" d="M1 130.5H8" stroke="#666666" stroke-width="0.5"/>
<path id="Vector_19" d="M1 123H8" stroke="#666666" stroke-width="0.5"/>
<path id="Vector_20" d="M1 115.5H8" stroke="#666666" stroke-width="0.5"/>
<path id="Vector_21" d="M1 108H8" stroke="#666666" stroke-width="0.5"/>
<path id="Vector_22" d="M1 100.5H8" stroke="#666666" stroke-width="0.5"/>
<path id="Vector_23" d="M1 93H8" stroke="#666666" stroke-width="0.5"/>
<path id="Vector_24" d="M1 85.5H8" stroke="#666666" stroke-width="0.5"/>
<path id="Vector_25" d="M1 78H8" stroke="#666666" stroke-width="0.5"/>
<path id="Vector_26" d="M1 70.5H8" stroke="#666666" stroke-width="0.5"/>
<path id="Vector_27" d="M1 63H8" stroke="#666666" stroke-width="0.5"/>
<path id="Vector_28" d="M1 55.5H8" stroke="#666666" stroke-width="0.5"/>
<path id="Vector_29" d="M1 48H8" stroke="#666666" stroke-width="0.5"/>
<path id="Vector_30" d="M1 40.5H8" stroke="#666666" stroke-width="0.5"/>
<path id="Vector_31" d="M1 33H8" stroke="#666666" stroke-width="0.5"/>
<path id="Vector_32" d="M1 25.5H8" stroke="#666666" stroke-width="0.5"/>
<path id="Vector_33" d="M1 18H8" stroke="#666666" stroke-width="0.5"/>
<path id="Vector_34" d="M3 219L8 219" stroke="#666666" stroke-width="0.5"/>
<path id="Vector_35" d="M3 219L8 219" stroke="#666666" stroke-width="0.5"/>
<path id="Vector_36" d="M3 211.5L8 211.5" stroke="#666666" stroke-width="0.5"/>
<path id="Vector_37" d="M3 204L8 204" stroke="#666666" stroke-width="0.5"/>
<path id="Vector_38" d="M3 196.5L8 196.5" stroke="#666666" stroke-width="0.5"/>
<path id="Vector_39" d="M3 189L8 189" stroke="#666666" stroke-width="0.5"/>
<path id="Vector_40" d="M3 181.5L8 181.5" stroke="#666666" stroke-width="0.5"/>
<path id="Vector_41" d="M3 174L8 174" stroke="#666666" stroke-width="0.5"/>
<path id="Vector_42" d="M3 166.5L8 166.5" stroke="#666666" stroke-width="0.5"/>
<path id="Vector_43" d="M3 159L8 159" stroke="#666666" stroke-width="0.5"/>
<path id="Vector_44" d="M3 151.5L8 151.5" stroke="#666666" stroke-width="0.5"/>
<path id="Vector_45" d="M3 144L8 144" stroke="#666666" stroke-width="0.5"/>
<path id="Vector_46" d="M3 136.5L8 136.5" stroke="#666666" stroke-width="0.5"/>
<path id="Vector_47" d="M3 129L8 129" stroke="#666666" stroke-width="0.5"/>
<path id="Vector_48" d="M3 121.5L8 121.5" stroke="#666666" stroke-width="0.5"/>
<path id="Vector_49" d="M3 114L8 114" stroke="#666666" stroke-width="0.5"/>
<path id="Vector_50" d="M3 106.5L8 106.5" stroke="#666666" stroke-width="0.5"/>
<path id="Vector_51" d="M3 99L8 99" stroke="#666666" stroke-width="0.5"/>
<path id="Vector_52" d="M3 91.5L8 91.5" stroke="#666666" stroke-width="0.5"/>
<path id="Vector_53" d="M3 84L8 84" stroke="#666666" stroke-width="0.5"/>
<path id="Vector_54" d="M3 76.5L8 76.5" stroke="#666666" stroke-width="0.5"/>
<path id="Vector_55" d="M3 69L8 69" stroke="#666666" stroke-width="0.5"/>
<path id="Vector_56" d="M3 61.5L8 61.5" stroke="#666666" stroke-width="0.5"/>
<path id="Vector_57" d="M3 54L8 54" stroke="#666666" stroke-width="0.5"/>
<path id="Vector_58" d="M3 46.5L8 46.5" stroke="#666666" stroke-width="0.5"/>
<path id="Vector_59" d="M3 39L8 39" stroke="#666666" stroke-width="0.5"/>
<path id="Vector_60" d="M3 31.5L8 31.5" stroke="#666666" stroke-width="0.5"/>
<path id="Vector_61" d="M3 24L8 24" stroke="#666666" stroke-width="0.5"/>
<path id="Vector_62" d="M3 16.5L8 16.5" stroke="#666666" stroke-width="0.5"/>
<path id="Vector_63" d="M3 217.5L8 217.5" stroke="#666666" stroke-width="0.5"/>
<path id="Vector_64" d="M3 217.5L8 217.5" stroke="#666666" stroke-width="0.5"/>
<path id="Vector_65" d="M3 210L8 210" stroke="#666666" stroke-width="0.5"/>
<path id="Vector_66" d="M3 202.5L8 202.5" stroke="#666666" stroke-width="0.5"/>
<path id="Vector_67" d="M3 195L8 195" stroke="#666666" stroke-width="0.5"/>
<path id="Vector_68" d="M3 187.5L8 187.5" stroke="#666666" stroke-width="0.5"/>
<path id="Vector_69" d="M3 180L8 180" stroke="#666666" stroke-width="0.5"/>
<path id="Vector_70" d="M3 172.5L8 172.5" stroke="#666666" stroke-width="0.5"/>
<path id="Vector_71" d="M3 165L8 165" stroke="#666666" stroke-width="0.5"/>
<path id="Vector_72" d="M3 157.5L8 157.5" stroke="#666666" stroke-width="0.5"/>
<path id="Vector_73" d="M3 150L8 150" stroke="#666666" stroke-width="0.5"/>
<path id="Vector_74" d="M3 142.5L8 142.5" stroke="#666666" stroke-width="0.5"/>
<path id="Vector_75" d="M3 135L8 135" stroke="#666666" stroke-width="0.5"/>
<path id="Vector_76" d="M3 127.5L8 127.5" stroke="#666666" stroke-width="0.5"/>
<path id="Vector_77" d="M3 120L8 120" stroke="#666666" stroke-width="0.5"/>
<path id="Vector_78" d="M3 112.5L8 112.5" stroke="#666666" stroke-width="0.5"/>
<path id="Vector_79" d="M3 105L8 105" stroke="#666666" stroke-width="0.5"/>
<path id="Vector_80" d="M3 97.5L8 97.5" stroke="#666666" stroke-width="0.5"/>
<path id="Vector_81" d="M3 90L8 90" stroke="#666666" stroke-width="0.5"/>
<path id="Vector_82" d="M3 82.5L8 82.5" stroke="#666666" stroke-width="0.5"/>
<path id="Vector_83" d="M3 75L8 75" stroke="#666666" stroke-width="0.5"/>
<path id="Vector_84" d="M3 67.5L8 67.5" stroke="#666666" stroke-width="0.5"/>
<path id="Vector_85" d="M3 60L8 60" stroke="#666666" stroke-width="0.5"/>
<path id="Vector_86" d="M3 52.5L8 52.5" stroke="#666666" stroke-width="0.5"/>
<path id="Vector_87" d="M3 45L8 45" stroke="#666666" stroke-width="0.5"/>
<path id="Vector_88" d="M3 37.5L8 37.5" stroke="#666666" stroke-width="0.5"/>
<path id="Vector_89" d="M3 30L8 30" stroke="#666666" stroke-width="0.5"/>
<path id="Vector_90" d="M3 22.5L8 22.5" stroke="#666666" stroke-width="0.5"/>
<path id="Vector_91" d="M3 15L8 15" stroke="#666666" stroke-width="0.5"/>
<path id="Vector_92" d="M3 216L8 216" stroke="#666666" stroke-width="0.5"/>
<path id="Vector_93" d="M3 216L8 216" stroke="#666666" stroke-width="0.5"/>
<path id="Vector_94" d="M3 208.5L8 208.5" stroke="#666666" stroke-width="0.5"/>
<path id="Vector_95" d="M3 201L8 201" stroke="#666666" stroke-width="0.5"/>
<path id="Vector_96" d="M3 193.5L8 193.5" stroke="#666666" stroke-width="0.5"/>
<path id="Vector_97" d="M3 186L8 186" stroke="#666666" stroke-width="0.5"/>
<path id="Vector_98" d="M3 178.5L8 178.5" stroke="#666666" stroke-width="0.5"/>
<path id="Vector_99" d="M3 171L8 171" stroke="#666666" stroke-width="0.5"/>
<path id="Vector_100" d="M3 163.5L8 163.5" stroke="#666666" stroke-width="0.5"/>
<path id="Vector_101" d="M3 156L8 156" stroke="#666666" stroke-width="0.5"/>
<path id="Vector_102" d="M3 148.5L8 148.5" stroke="#666666" stroke-width="0.5"/>
<path id="Vector_103" d="M3 141L8 141" stroke="#666666" stroke-width="0.5"/>
<path id="Vector_104" d="M3 133.5L8 133.5" stroke="#666666" stroke-width="0.5"/>
<path id="Vector_105" d="M3 126L8 126" stroke="#666666" stroke-width="0.5"/>
<path id="Vector_106" d="M3 118.5L8 118.5" stroke="#666666" stroke-width="0.5"/>
<path id="Vector_107" d="M3 111L8 111" stroke="#666666" stroke-width="0.5"/>
<path id="Vector_108" d="M3 103.5L8 103.5" stroke="#666666" stroke-width="0.5"/>
<path id="Vector_109" d="M3 96L8 96" stroke="#666666" stroke-width="0.5"/>
<path id="Vector_110" d="M3 88.5L8 88.5" stroke="#666666" stroke-width="0.5"/>
<path id="Vector_111" d="M3 81L8 81" stroke="#666666" stroke-width="0.5"/>
<path id="Vector_112" d="M3 73.5L8 73.5" stroke="#666666" stroke-width="0.5"/>
<path id="Vector_113" d="M3 66L8 66" stroke="#666666" stroke-width="0.5"/>
<path id="Vector_114" d="M3 58.5L8 58.5" stroke="#666666" stroke-width="0.5"/>
<path id="Vector_115" d="M3 51L8 51" stroke="#666666" stroke-width="0.5"/>
<path id="Vector_116" d="M3 43.5L8 43.5" stroke="#666666" stroke-width="0.5"/>
<path id="Vector_117" d="M3 36L8 36" stroke="#666666" stroke-width="0.5"/>
<path id="Vector_118" d="M3 28.5L8 28.5" stroke="#666666" stroke-width="0.5"/>
<path id="Vector_119" d="M3 21L8 21" stroke="#666666" stroke-width="0.5"/>
<path id="Vector_120" d="M3 13.5L8 13.5" stroke="#666666" stroke-width="0.5"/>
<path id="Vector_121" d="M3 214.5L8 214.5" stroke="#666666" stroke-width="0.5"/>
<path id="Vector_122" d="M3 214.5L8 214.5" stroke="#666666" stroke-width="0.5"/>
<path id="Vector_123" d="M3 207L8 207" stroke="#666666" stroke-width="0.5"/>
<path id="Vector_124" d="M3 199.5L8 199.5" stroke="#666666" stroke-width="0.5"/>
<path id="Vector_125" d="M3 192L8 192" stroke="#666666" stroke-width="0.5"/>
<path id="Vector_126" d="M3 184.5L8 184.5" stroke="#666666" stroke-width="0.5"/>
<path id="Vector_127" d="M3 177L8 177" stroke="#666666" stroke-width="0.5"/>
<path id="Vector_128" d="M3 169.5L8 169.5" stroke="#666666" stroke-width="0.5"/>
<path id="Vector_129" d="M3 162L8 162" stroke="#666666" stroke-width="0.5"/>
<path id="Vector_130" d="M3 154.5L8 154.5" stroke="#666666" stroke-width="0.5"/>
<path id="Vector_131" d="M3 147L8 147" stroke="#666666" stroke-width="0.5"/>
<path id="Vector_132" d="M3 139.5L8 139.5" stroke="#666666" stroke-width="0.5"/>
<path id="Vector_133" d="M3 132L8 132" stroke="#666666" stroke-width="0.5"/>
<path id="Vector_134" d="M3 124.5L8 124.5" stroke="#666666" stroke-width="0.5"/>
<path id="Vector_135" d="M3 117L8 117" stroke="#666666" stroke-width="0.5"/>
<path id="Vector_136" d="M3 109.5L8 109.5" stroke="#666666" stroke-width="0.5"/>
<path id="Vector_137" d="M3 102L8 102" stroke="#666666" stroke-width="0.5"/>
<path id="Vector_138" d="M3 94.5L8 94.5" stroke="#666666" stroke-width="0.5"/>
<path id="Vector_139" d="M3 87L8 87" stroke="#666666" stroke-width="0.5"/>
<path id="Vector_140" d="M3 79.5L8 79.5" stroke="#666666" stroke-width="0.5"/>
<path id="Vector_141" d="M3 72L8 72" stroke="#666666" stroke-width="0.5"/>
<path id="Vector_142" d="M3 64.5L8 64.5" stroke="#666666" stroke-width="0.5"/>
<path id="Vector_143" d="M3 57L8 57" stroke="#666666" stroke-width="0.5"/>
<path id="Vector_144" d="M3 49.5L8 49.5" stroke="#666666" stroke-width="0.5"/>
<path id="Vector_145" d="M3 42L8 42" stroke="#666666" stroke-width="0.5"/>
<path id="Vector_146" d="M3 34.5L8 34.5" stroke="#666666" stroke-width="0.5"/>
<path id="Vector_147" d="M3 27L8 27" stroke="#666666" stroke-width="0.5"/>
<path id="Vector_148" d="M3 19.5L8 19.5" stroke="#666666" stroke-width="0.5"/>
<path id="Vector_149" d="M3 12L8 12" stroke="#666666" stroke-width="0.5"/>
</g>
<g id="Group 8">
<path id="Vector_150" d="M49 220.5H42" stroke="#666666" stroke-width="0.5"/>
<path id="Vector_151" d="M49 213H42" stroke="#666666" stroke-width="0.5"/>
<path id="Vector_152" d="M49 205.5H42" stroke="#666666" stroke-width="0.5"/>
<path id="Vector_153" d="M49 198H42" stroke="#666666" stroke-width="0.5"/>
<path id="Vector_154" d="M49 190.5H42" stroke="#666666" stroke-width="0.5"/>
<path id="Vector_155" d="M49 183H42" stroke="#666666" stroke-width="0.5"/>
<path id="Vector_156" d="M49 175.5H42" stroke="#666666" stroke-width="0.5"/>
<path id="Vector_157" d="M49 168H42" stroke="#666666" stroke-width="0.5"/>
<path id="Vector_158" d="M49 160.5H42" stroke="#666666" stroke-width="0.5"/>
<path id="Vector_159" d="M49 153H42" stroke="#666666" stroke-width="0.5"/>
<path id="Vector_160" d="M49 145.5H42" stroke="#666666" stroke-width="0.5"/>
<path id="Vector_161" d="M49 138H42" stroke="#666666" stroke-width="0.5"/>
<path id="Vector_162" d="M49 130.5H42" stroke="#666666" stroke-width="0.5"/>
<path id="Vector_163" d="M49 123H42" stroke="#666666" stroke-width="0.5"/>
<path id="Vector_164" d="M49 115.5H42" stroke="#666666" stroke-width="0.5"/>
<path id="Vector_165" d="M49 108H42" stroke="#666666" stroke-width="0.5"/>
<path id="Vector_166" d="M49 100.5H42" stroke="#666666" stroke-width="0.5"/>
<path id="Vector_167" d="M49 93H42" stroke="#666666" stroke-width="0.5"/>
<path id="Vector_168" d="M49 85.5H42" stroke="#666666" stroke-width="0.5"/>
<path id="Vector_169" d="M49 78H42" stroke="#666666" stroke-width="0.5"/>
<path id="Vector_170" d="M49 70.5H42" stroke="#666666" stroke-width="0.5"/>
<path id="Vector_171" d="M49 63H42" stroke="#666666" stroke-width="0.5"/>
<path id="Vector_172" d="M49 55.5H42" stroke="#666666" stroke-width="0.5"/>
<path id="Vector_173" d="M49 48H42" stroke="#666666" stroke-width="0.5"/>
<path id="Vector_174" d="M49 40.5H42" stroke="#666666" stroke-width="0.5"/>
<path id="Vector_175" d="M49 33H42" stroke="#666666" stroke-width="0.5"/>
<path id="Vector_176" d="M49 25.5H42" stroke="#666666" stroke-width="0.5"/>
<path id="Vector_177" d="M49 18H42" stroke="#666666" stroke-width="0.5"/>
<path id="Vector_178" d="M47 219L42 219" stroke="#666666" stroke-width="0.5"/>
<path id="Vector_179" d="M47 219L42 219" stroke="#666666" stroke-width="0.5"/>
<path id="Vector_180" d="M47 211.5L42 211.5" stroke="#666666" stroke-width="0.5"/>
<path id="Vector_181" d="M47 204L42 204" stroke="#666666" stroke-width="0.5"/>
<path id="Vector_182" d="M47 196.5L42 196.5" stroke="#666666" stroke-width="0.5"/>
<path id="Vector_183" d="M47 189L42 189" stroke="#666666" stroke-width="0.5"/>
<path id="Vector_184" d="M47 181.5L42 181.5" stroke="#666666" stroke-width="0.5"/>
<path id="Vector_185" d="M47 174L42 174" stroke="#666666" stroke-width="0.5"/>
<path id="Vector_186" d="M47 166.5L42 166.5" stroke="#666666" stroke-width="0.5"/>
<path id="Vector_187" d="M47 159L42 159" stroke="#666666" stroke-width="0.5"/>
<path id="Vector_188" d="M47 151.5L42 151.5" stroke="#666666" stroke-width="0.5"/>
<path id="Vector_189" d="M47 144L42 144" stroke="#666666" stroke-width="0.5"/>
<path id="Vector_190" d="M47 136.5L42 136.5" stroke="#666666" stroke-width="0.5"/>
<path id="Vector_191" d="M47 129L42 129" stroke="#666666" stroke-width="0.5"/>
<path id="Vector_192" d="M47 121.5L42 121.5" stroke="#666666" stroke-width="0.5"/>
<path id="Vector_193" d="M47 114L42 114" stroke="#666666" stroke-width="0.5"/>
<path id="Vector_194" d="M47 106.5L42 106.5" stroke="#666666" stroke-width="0.5"/>
<path id="Vector_195" d="M47 99L42 99" stroke="#666666" stroke-width="0.5"/>
<path id="Vector_196" d="M47 91.5L42 91.5" stroke="#666666" stroke-width="0.5"/>
<path id="Vector_197" d="M47 84L42 84" stroke="#666666" stroke-width="0.5"/>
<path id="Vector_198" d="M47 76.5L42 76.5" stroke="#666666" stroke-width="0.5"/>
<path id="Vector_199" d="M47 69L42 69" stroke="#666666" stroke-width="0.5"/>
<path id="Vector_200" d="M47 61.5L42 61.5" stroke="#666666" stroke-width="0.5"/>
<path id="Vector_201" d="M47 54L42 54" stroke="#666666" stroke-width="0.5"/>
<path id="Vector_202" d="M47 46.5L42 46.5" stroke="#666666" stroke-width="0.5"/>
<path id="Vector_203" d="M47 39L42 39" stroke="#666666" stroke-width="0.5"/>
<path id="Vector_204" d="M47 31.5L42 31.5" stroke="#666666" stroke-width="0.5"/>
<path id="Vector_205" d="M47 24L42 24" stroke="#666666" stroke-width="0.5"/>
<path id="Vector_206" d="M47 16.5L42 16.5" stroke="#666666" stroke-width="0.5"/>
<path id="Vector_207" d="M47 217.5L42 217.5" stroke="#666666" stroke-width="0.5"/>
<path id="Vector_208" d="M47 217.5L42 217.5" stroke="#666666" stroke-width="0.5"/>
<path id="Vector_209" d="M47 210L42 210" stroke="#666666" stroke-width="0.5"/>
<path id="Vector_210" d="M47 202.5L42 202.5" stroke="#666666" stroke-width="0.5"/>
<path id="Vector_211" d="M47 195L42 195" stroke="#666666" stroke-width="0.5"/>
<path id="Vector_212" d="M47 187.5L42 187.5" stroke="#666666" stroke-width="0.5"/>
<path id="Vector_213" d="M47 180L42 180" stroke="#666666" stroke-width="0.5"/>
<path id="Vector_214" d="M47 172.5L42 172.5" stroke="#666666" stroke-width="0.5"/>
<path id="Vector_215" d="M47 165L42 165" stroke="#666666" stroke-width="0.5"/>
<path id="Vector_216" d="M47 157.5L42 157.5" stroke="#666666" stroke-width="0.5"/>
<path id="Vector_217" d="M47 150L42 150" stroke="#666666" stroke-width="0.5"/>
<path id="Vector_218" d="M47 142.5L42 142.5" stroke="#666666" stroke-width="0.5"/>
<path id="Vector_219" d="M47 135L42 135" stroke="#666666" stroke-width="0.5"/>
<path id="Vector_220" d="M47 127.5L42 127.5" stroke="#666666" stroke-width="0.5"/>
<path id="Vector_221" d="M47 120L42 120" stroke="#666666" stroke-width="0.5"/>
<path id="Vector_222" d="M47 112.5L42 112.5" stroke="#666666" stroke-width="0.5"/>
<path id="Vector_223" d="M47 105L42 105" stroke="#666666" stroke-width="0.5"/>
<path id="Vector_224" d="M47 97.5L42 97.5" stroke="#666666" stroke-width="0.5"/>
<path id="Vector_225" d="M47 90L42 90" stroke="#666666" stroke-width="0.5"/>
<path id="Vector_226" d="M47 82.5L42 82.5" stroke="#666666" stroke-width="0.5"/>
<path id="Vector_227" d="M47 75L42 75" stroke="#666666" stroke-width="0.5"/>
<path id="Vector_228" d="M47 67.5L42 67.5" stroke="#666666" stroke-width="0.5"/>
<path id="Vector_229" d="M47 60L42 60" stroke="#666666" stroke-width="0.5"/>
<path id="Vector_230" d="M47 52.5L42 52.5" stroke="#666666" stroke-width="0.5"/>
<path id="Vector_231" d="M47 45L42 45" stroke="#666666" stroke-width="0.5"/>
<path id="Vector_232" d="M47 37.5L42 37.5" stroke="#666666" stroke-width="0.5"/>
<path id="Vector_233" d="M47 30L42 30" stroke="#666666" stroke-width="0.5"/>
<path id="Vector_234" d="M47 22.5L42 22.5" stroke="#666666" stroke-width="0.5"/>
<path id="Vector_235" d="M47 15L42 15" stroke="#666666" stroke-width="0.5"/>
<path id="Vector_236" d="M47 216L42 216" stroke="#666666" stroke-width="0.5"/>
<path id="Vector_237" d="M47 216L42 216" stroke="#666666" stroke-width="0.5"/>
<path id="Vector_238" d="M47 208.5L42 208.5" stroke="#666666" stroke-width="0.5"/>
<path id="Vector_239" d="M47 201L42 201" stroke="#666666" stroke-width="0.5"/>
<path id="Vector_240" d="M47 193.5L42 193.5" stroke="#666666" stroke-width="0.5"/>
<path id="Vector_241" d="M47 186L42 186" stroke="#666666" stroke-width="0.5"/>
<path id="Vector_242" d="M47 178.5L42 178.5" stroke="#666666" stroke-width="0.5"/>
<path id="Vector_243" d="M47 171L42 171" stroke="#666666" stroke-width="0.5"/>
<path id="Vector_244" d="M47 163.5L42 163.5" stroke="#666666" stroke-width="0.5"/>
<path id="Vector_245" d="M47 156L42 156" stroke="#666666" stroke-width="0.5"/>
<path id="Vector_246" d="M47 148.5L42 148.5" stroke="#666666" stroke-width="0.5"/>
<path id="Vector_247" d="M47 141L42 141" stroke="#666666" stroke-width="0.5"/>
<path id="Vector_248" d="M47 133.5L42 133.5" stroke="#666666" stroke-width="0.5"/>
<path id="Vector_249" d="M47 126L42 126" stroke="#666666" stroke-width="0.5"/>
<path id="Vector_250" d="M47 118.5L42 118.5" stroke="#666666" stroke-width="0.5"/>
<path id="Vector_251" d="M47 111L42 111" stroke="#666666" stroke-width="0.5"/>
<path id="Vector_252" d="M47 103.5L42 103.5" stroke="#666666" stroke-width="0.5"/>
<path id="Vector_253" d="M47 96L42 96" stroke="#666666" stroke-width="0.5"/>
<path id="Vector_254" d="M47 88.5L42 88.5" stroke="#666666" stroke-width="0.5"/>
<path id="Vector_255" d="M47 81L42 81" stroke="#666666" stroke-width="0.5"/>
<path id="Vector_256" d="M47 73.5L42 73.5" stroke="#666666" stroke-width="0.5"/>
<path id="Vector_257" d="M47 66L42 66" stroke="#666666" stroke-width="0.5"/>
<path id="Vector_258" d="M47 58.5L42 58.5" stroke="#666666" stroke-width="0.5"/>
<path id="Vector_259" d="M47 51L42 51" stroke="#666666" stroke-width="0.5"/>
<path id="Vector_260" d="M47 43.5L42 43.5" stroke="#666666" stroke-width="0.5"/>
<path id="Vector_261" d="M47 36L42 36" stroke="#666666" stroke-width="0.5"/>
<path id="Vector_262" d="M47 28.5L42 28.5" stroke="#666666" stroke-width="0.5"/>
<path id="Vector_263" d="M47 21L42 21" stroke="#666666" stroke-width="0.5"/>
<path id="Vector_264" d="M47 13.5L42 13.5" stroke="#666666" stroke-width="0.5"/>
<path id="Vector_265" d="M47 214.5L42 214.5" stroke="#666666" stroke-width="0.5"/>
<path id="Vector_266" d="M47 214.5L42 214.5" stroke="#666666" stroke-width="0.5"/>
<path id="Vector_267" d="M47 207L42 207" stroke="#666666" stroke-width="0.5"/>
<path id="Vector_268" d="M47 199.5L42 199.5" stroke="#666666" stroke-width="0.5"/>
<path id="Vector_269" d="M47 192L42 192" stroke="#666666" stroke-width="0.5"/>
<path id="Vector_270" d="M47 184.5L42 184.5" stroke="#666666" stroke-width="0.5"/>
<path id="Vector_271" d="M47 177L42 177" stroke="#666666" stroke-width="0.5"/>
<path id="Vector_272" d="M47 169.5L42 169.5" stroke="#666666" stroke-width="0.5"/>
<path id="Vector_273" d="M47 162L42 162" stroke="#666666" stroke-width="0.5"/>
<path id="Vector_274" d="M47 154.5L42 154.5" stroke="#666666" stroke-width="0.5"/>
<path id="Vector_275" d="M47 147L42 147" stroke="#666666" stroke-width="0.5"/>
<path id="Vector_276" d="M47 139.5L42 139.5" stroke="#666666" stroke-width="0.5"/>
<path id="Vector_277" d="M47 132L42 132" stroke="#666666" stroke-width="0.5"/>
<path id="Vector_278" d="M47 124.5L42 124.5" stroke="#666666" stroke-width="0.5"/>
<path id="Vector_279" d="M47 117L42 117" stroke="#666666" stroke-width="0.5"/>
<path id="Vector_280" d="M47 109.5L42 109.5" stroke="#666666" stroke-width="0.5"/>
<path id="Vector_281" d="M47 102L42 102" stroke="#666666" stroke-width="0.5"/>
<path id="Vector_282" d="M47 94.5L42 94.5" stroke="#666666" stroke-width="0.5"/>
<path id="Vector_283" d="M47 87L42 87" stroke="#666666" stroke-width="0.5"/>
<path id="Vector_284" d="M47 79.5L42 79.5" stroke="#666666" stroke-width="0.5"/>
<path id="Vector_285" d="M47 72L42 72" stroke="#666666" stroke-width="0.5"/>
<path id="Vector_286" d="M47 64.5L42 64.5" stroke="#666666" stroke-width="0.5"/>
<path id="Vector_287" d="M47 57L42 57" stroke="#666666" stroke-width="0.5"/>
<path id="Vector_288" d="M47 49.5L42 49.5" stroke="#666666" stroke-width="0.5"/>
<path id="Vector_289" d="M47 42L42 42" stroke="#666666" stroke-width="0.5"/>
<path id="Vector_290" d="M47 34.5L42 34.5" stroke="#666666" stroke-width="0.5"/>
<path id="Vector_291" d="M47 27L42 27" stroke="#666666" stroke-width="0.5"/>
<path id="Vector_292" d="M47 19.5L42 19.5" stroke="#666666" stroke-width="0.5"/>
<path id="Vector_293" d="M47 12L42 12" stroke="#666666" stroke-width="0.5"/>
</g>
</g>
</mask>
<g mask="url(#mask0_175_614)">
<rect id="goal-fill" x="1" y="-7" width="48" height="270" fill="#7547D0"  style="transform-origin: bottom; transform: scaleY(0%);"/>
<g id="Group 11">
<path id="Subtract" fill-rule="evenodd" clip-rule="evenodd" d="M25 0C31.6274 0 37 5.28304 37 11.8V220C37 223.977 34.8129 223.1 31.6018 221.812C31.405 221.733 31.2043 221.653 31 221.572V11.8947C31 8.63916 28.3137 6 25 6C21.6863 6 19 8.63916 19 11.8947V221.27C18.4985 221.475 18.0217 221.686 17.5721 221.884C14.7472 223.131 13 223.902 13 220V11.8C13 5.28304 18.3726 0 25 0Z" fill="#333333"/>
<path id="Subtract_2" fill-rule="evenodd" clip-rule="evenodd" d="M45 236C45 247.046 36.0457 256 25 256C13.9543 256 5 247.046 5 236C5 224.954 13.9543 216 25 216C36.0457 216 45 224.954 45 236ZM40 236C40 244.284 33.2843 251 25 251C16.7157 251 10 244.284 10 236C10 227.716 16.7157 221 25 221C33.2843 221 40 227.716 40 236Z" fill="#333333"/>
<g id="Group 7_2">
<path id="Vector_294" d="M1 220.5H8" stroke="#666666" stroke-width="0.5"/>
<path id="Vector_295" d="M1 213H8" stroke="#666666" stroke-width="0.5"/>
<path id="Vector_296" d="M1 205.5H8" stroke="#666666" stroke-width="0.5"/>
<path id="Vector_297" d="M1 198H8" stroke="#666666" stroke-width="0.5"/>
<path id="Vector_298" d="M1 190.5H8" stroke="#666666" stroke-width="0.5"/>
<path id="Vector_299" d="M1 183H8" stroke="#666666" stroke-width="0.5"/>
<path id="Vector_300" d="M1 175.5H8" stroke="#666666" stroke-width="0.5"/>
<path id="Vector_301" d="M1 168H8" stroke="#666666" stroke-width="0.5"/>
<path id="Vector_302" d="M1 160.5H8" stroke="#666666" stroke-width="0.5"/>
<path id="Vector_303" d="M1 153H8" stroke="#666666" stroke-width="0.5"/>
<path id="Vector_304" d="M1 145.5H8" stroke="#666666" stroke-width="0.5"/>
<path id="Vector_305" d="M1 138H8" stroke="#666666" stroke-width="0.5"/>
<path id="Vector_306" d="M1 130.5H8" stroke="#666666" stroke-width="0.5"/>
<path id="Vector_307" d="M1 123H8" stroke="#666666" stroke-width="0.5"/>
<path id="Vector_308" d="M1 115.5H8" stroke="#666666" stroke-width="0.5"/>
<path id="Vector_309" d="M1 108H8" stroke="#666666" stroke-width="0.5"/>
<path id="Vector_310" d="M1 100.5H8" stroke="#666666" stroke-width="0.5"/>
<path id="Vector_311" d="M1 93H8" stroke="#666666" stroke-width="0.5"/>
<path id="Vector_312" d="M1 85.5H8" stroke="#666666" stroke-width="0.5"/>
<path id="Vector_313" d="M1 78H8" stroke="#666666" stroke-width="0.5"/>
<path id="Vector_314" d="M1 70.5H8" stroke="#666666" stroke-width="0.5"/>
<path id="Vector_315" d="M1 63H8" stroke="#666666" stroke-width="0.5"/>
<path id="Vector_316" d="M1 55.5H8" stroke="#666666" stroke-width="0.5"/>
<path id="Vector_317" d="M1 48H8" stroke="#666666" stroke-width="0.5"/>
<path id="Vector_318" d="M1 40.5H8" stroke="#666666" stroke-width="0.5"/>
<path id="Vector_319" d="M1 33H8" stroke="#666666" stroke-width="0.5"/>
<path id="Vector_320" d="M1 25.5H8" stroke="#666666" stroke-width="0.5"/>
<path id="Vector_321" d="M1 18H8" stroke="#666666" stroke-width="0.5"/>
<path id="Vector_322" d="M3 219L8 219" stroke="#666666" stroke-width="0.5"/>
<path id="Vector_323" d="M3 219L8 219" stroke="#666666" stroke-width="0.5"/>
<path id="Vector_324" d="M3 211.5L8 211.5" stroke="#666666" stroke-width="0.5"/>
<path id="Vector_325" d="M3 204L8 204" stroke="#666666" stroke-width="0.5"/>
<path id="Vector_326" d="M3 196.5L8 196.5" stroke="#666666" stroke-width="0.5"/>
<path id="Vector_327" d="M3 189L8 189" stroke="#666666" stroke-width="0.5"/>
<path id="Vector_328" d="M3 181.5L8 181.5" stroke="#666666" stroke-width="0.5"/>
<path id="Vector_329" d="M3 174L8 174" stroke="#666666" stroke-width="0.5"/>
<path id="Vector_330" d="M3 166.5L8 166.5" stroke="#666666" stroke-width="0.5"/>
<path id="Vector_331" d="M3 159L8 159" stroke="#666666" stroke-width="0.5"/>
<path id="Vector_332" d="M3 151.5L8 151.5" stroke="#666666" stroke-width="0.5"/>
<path id="Vector_333" d="M3 144L8 144" stroke="#666666" stroke-width="0.5"/>
<path id="Vector_334" d="M3 136.5L8 136.5" stroke="#666666" stroke-width="0.5"/>
<path id="Vector_335" d="M3 129L8 129" stroke="#666666" stroke-width="0.5"/>
<path id="Vector_336" d="M3 121.5L8 121.5" stroke="#666666" stroke-width="0.5"/>
<path id="Vector_337" d="M3 114L8 114" stroke="#666666" stroke-width="0.5"/>
<path id="Vector_338" d="M3 106.5L8 106.5" stroke="#666666" stroke-width="0.5"/>
<path id="Vector_339" d="M3 99L8 99" stroke="#666666" stroke-width="0.5"/>
<path id="Vector_340" d="M3 91.5L8 91.5" stroke="#666666" stroke-width="0.5"/>
<path id="Vector_341" d="M3 84L8 84" stroke="#666666" stroke-width="0.5"/>
<path id="Vector_342" d="M3 76.5L8 76.5" stroke="#666666" stroke-width="0.5"/>
<path id="Vector_343" d="M3 69L8 69" stroke="#666666" stroke-width="0.5"/>
<path id="Vector_344" d="M3 61.5L8 61.5" stroke="#666666" stroke-width="0.5"/>
<path id="Vector_345" d="M3 54L8 54" stroke="#666666" stroke-width="0.5"/>
<path id="Vector_346" d="M3 46.5L8 46.5" stroke="#666666" stroke-width="0.5"/>
<path id="Vector_347" d="M3 39L8 39" stroke="#666666" stroke-width="0.5"/>
<path id="Vector_348" d="M3 31.5L8 31.5" stroke="#666666" stroke-width="0.5"/>
<path id="Vector_349" d="M3 24L8 24" stroke="#666666" stroke-width="0.5"/>
<path id="Vector_350" d="M3 16.5L8 16.5" stroke="#666666" stroke-width="0.5"/>
<path id="Vector_351" d="M3 217.5L8 217.5" stroke="#666666" stroke-width="0.5"/>
<path id="Vector_352" d="M3 217.5L8 217.5" stroke="#666666" stroke-width="0.5"/>
<path id="Vector_353" d="M3 210L8 210" stroke="#666666" stroke-width="0.5"/>
<path id="Vector_354" d="M3 202.5L8 202.5" stroke="#666666" stroke-width="0.5"/>
<path id="Vector_355" d="M3 195L8 195" stroke="#666666" stroke-width="0.5"/>
<path id="Vector_356" d="M3 187.5L8 187.5" stroke="#666666" stroke-width="0.5"/>
<path id="Vector_357" d="M3 180L8 180" stroke="#666666" stroke-width="0.5"/>
<path id="Vector_358" d="M3 172.5L8 172.5" stroke="#666666" stroke-width="0.5"/>
<path id="Vector_359" d="M3 165L8 165" stroke="#666666" stroke-width="0.5"/>
<path id="Vector_360" d="M3 157.5L8 157.5" stroke="#666666" stroke-width="0.5"/>
<path id="Vector_361" d="M3 150L8 150" stroke="#666666" stroke-width="0.5"/>
<path id="Vector_362" d="M3 142.5L8 142.5" stroke="#666666" stroke-width="0.5"/>
<path id="Vector_363" d="M3 135L8 135" stroke="#666666" stroke-width="0.5"/>
<path id="Vector_364" d="M3 127.5L8 127.5" stroke="#666666" stroke-width="0.5"/>
<path id="Vector_365" d="M3 120L8 120" stroke="#666666" stroke-width="0.5"/>
<path id="Vector_366" d="M3 112.5L8 112.5" stroke="#666666" stroke-width="0.5"/>
<path id="Vector_367" d="M3 105L8 105" stroke="#666666" stroke-width="0.5"/>
<path id="Vector_368" d="M3 97.5L8 97.5" stroke="#666666" stroke-width="0.5"/>
<path id="Vector_369" d="M3 90L8 90" stroke="#666666" stroke-width="0.5"/>
<path id="Vector_370" d="M3 82.5L8 82.5" stroke="#666666" stroke-width="0.5"/>
<path id="Vector_371" d="M3 75L8 75" stroke="#666666" stroke-width="0.5"/>
<path id="Vector_372" d="M3 67.5L8 67.5" stroke="#666666" stroke-width="0.5"/>
<path id="Vector_373" d="M3 60L8 60" stroke="#666666" stroke-width="0.5"/>
<path id="Vector_374" d="M3 52.5L8 52.5" stroke="#666666" stroke-width="0.5"/>
<path id="Vector_375" d="M3 45L8 45" stroke="#666666" stroke-width="0.5"/>
<path id="Vector_376" d="M3 37.5L8 37.5" stroke="#666666" stroke-width="0.5"/>
<path id="Vector_377" d="M3 30L8 30" stroke="#666666" stroke-width="0.5"/>
<path id="Vector_378" d="M3 22.5L8 22.5" stroke="#666666" stroke-width="0.5"/>
<path id="Vector_379" d="M3 15L8 15" stroke="#666666" stroke-width="0.5"/>
<path id="Vector_380" d="M3 216L8 216" stroke="#666666" stroke-width="0.5"/>
<path id="Vector_381" d="M3 216L8 216" stroke="#666666" stroke-width="0.5"/>
<path id="Vector_382" d="M3 208.5L8 208.5" stroke="#666666" stroke-width="0.5"/>
<path id="Vector_383" d="M3 201L8 201" stroke="#666666" stroke-width="0.5"/>
<path id="Vector_384" d="M3 193.5L8 193.5" stroke="#666666" stroke-width="0.5"/>
<path id="Vector_385" d="M3 186L8 186" stroke="#666666" stroke-width="0.5"/>
<path id="Vector_386" d="M3 178.5L8 178.5" stroke="#666666" stroke-width="0.5"/>
<path id="Vector_387" d="M3 171L8 171" stroke="#666666" stroke-width="0.5"/>
<path id="Vector_388" d="M3 163.5L8 163.5" stroke="#666666" stroke-width="0.5"/>
<path id="Vector_389" d="M3 156L8 156" stroke="#666666" stroke-width="0.5"/>
<path id="Vector_390" d="M3 148.5L8 148.5" stroke="#666666" stroke-width="0.5"/>
<path id="Vector_391" d="M3 141L8 141" stroke="#666666" stroke-width="0.5"/>
<path id="Vector_392" d="M3 133.5L8 133.5" stroke="#666666" stroke-width="0.5"/>
<path id="Vector_393" d="M3 126L8 126" stroke="#666666" stroke-width="0.5"/>
<path id="Vector_394" d="M3 118.5L8 118.5" stroke="#666666" stroke-width="0.5"/>
<path id="Vector_395" d="M3 111L8 111" stroke="#666666" stroke-width="0.5"/>
<path id="Vector_396" d="M3 103.5L8 103.5" stroke="#666666" stroke-width="0.5"/>
<path id="Vector_397" d="M3 96L8 96" stroke="#666666" stroke-width="0.5"/>
<path id="Vector_398" d="M3 88.5L8 88.5" stroke="#666666" stroke-width="0.5"/>
<path id="Vector_399" d="M3 81L8 81" stroke="#666666" stroke-width="0.5"/>
<path id="Vector_400" d="M3 73.5L8 73.5" stroke="#666666" stroke-width="0.5"/>
<path id="Vector_401" d="M3 66L8 66" stroke="#666666" stroke-width="0.5"/>
<path id="Vector_402" d="M3 58.5L8 58.5" stroke="#666666" stroke-width="0.5"/>
<path id="Vector_403" d="M3 51L8 51" stroke="#666666" stroke-width="0.5"/>
<path id="Vector_404" d="M3 43.5L8 43.5" stroke="#666666" stroke-width="0.5"/>
<path id="Vector_405" d="M3 36L8 36" stroke="#666666" stroke-width="0.5"/>
<path id="Vector_406" d="M3 28.5L8 28.5" stroke="#666666" stroke-width="0.5"/>
<path id="Vector_407" d="M3 21L8 21" stroke="#666666" stroke-width="0.5"/>
<path id="Vector_408" d="M3 13.5L8 13.5" stroke="#666666" stroke-width="0.5"/>
<path id="Vector_409" d="M3 214.5L8 214.5" stroke="#666666" stroke-width="0.5"/>
<path id="Vector_410" d="M3 214.5L8 214.5" stroke="#666666" stroke-width="0.5"/>
<path id="Vector_411" d="M3 207L8 207" stroke="#666666" stroke-width="0.5"/>
<path id="Vector_412" d="M3 199.5L8 199.5" stroke="#666666" stroke-width="0.5"/>
<path id="Vector_413" d="M3 192L8 192" stroke="#666666" stroke-width="0.5"/>
<path id="Vector_414" d="M3 184.5L8 184.5" stroke="#666666" stroke-width="0.5"/>
<path id="Vector_415" d="M3 177L8 177" stroke="#666666" stroke-width="0.5"/>
<path id="Vector_416" d="M3 169.5L8 169.5" stroke="#666666" stroke-width="0.5"/>
<path id="Vector_417" d="M3 162L8 162" stroke="#666666" stroke-width="0.5"/>
<path id="Vector_418" d="M3 154.5L8 154.5" stroke="#666666" stroke-width="0.5"/>
<path id="Vector_419" d="M3 147L8 147" stroke="#666666" stroke-width="0.5"/>
<path id="Vector_420" d="M3 139.5L8 139.5" stroke="#666666" stroke-width="0.5"/>
<path id="Vector_421" d="M3 132L8 132" stroke="#666666" stroke-width="0.5"/>
<path id="Vector_422" d="M3 124.5L8 124.5" stroke="#666666" stroke-width="0.5"/>
<path id="Vector_423" d="M3 117L8 117" stroke="#666666" stroke-width="0.5"/>
<path id="Vector_424" d="M3 109.5L8 109.5" stroke="#666666" stroke-width="0.5"/>
<path id="Vector_425" d="M3 102L8 102" stroke="#666666" stroke-width="0.5"/>
<path id="Vector_426" d="M3 94.5L8 94.5" stroke="#666666" stroke-width="0.5"/>
<path id="Vector_427" d="M3 87L8 87" stroke="#666666" stroke-width="0.5"/>
<path id="Vector_428" d="M3 79.5L8 79.5" stroke="#666666" stroke-width="0.5"/>
<path id="Vector_429" d="M3 72L8 72" stroke="#666666" stroke-width="0.5"/>
<path id="Vector_430" d="M3 64.5L8 64.5" stroke="#666666" stroke-width="0.5"/>
<path id="Vector_431" d="M3 57L8 57" stroke="#666666" stroke-width="0.5"/>
<path id="Vector_432" d="M3 49.5L8 49.5" stroke="#666666" stroke-width="0.5"/>
<path id="Vector_433" d="M3 42L8 42" stroke="#666666" stroke-width="0.5"/>
<path id="Vector_434" d="M3 34.5L8 34.5" stroke="#666666" stroke-width="0.5"/>
<path id="Vector_435" d="M3 27L8 27" stroke="#666666" stroke-width="0.5"/>
<path id="Vector_436" d="M3 19.5L8 19.5" stroke="#666666" stroke-width="0.5"/>
<path id="Vector_437" d="M3 12L8 12" stroke="#666666" stroke-width="0.5"/>
</g>
<g id="Group 8_2">
<path id="Vector_438" d="M49 220.5H42" stroke="#666666" stroke-width="0.5"/>
<path id="Vector_439" d="M49 213H42" stroke="#666666" stroke-width="0.5"/>
<path id="Vector_440" d="M49 205.5H42" stroke="#666666" stroke-width="0.5"/>
<path id="Vector_441" d="M49 198H42" stroke="#666666" stroke-width="0.5"/>
<path id="Vector_442" d="M49 190.5H42" stroke="#666666" stroke-width="0.5"/>
<path id="Vector_443" d="M49 183H42" stroke="#666666" stroke-width="0.5"/>
<path id="Vector_444" d="M49 175.5H42" stroke="#666666" stroke-width="0.5"/>
<path id="Vector_445" d="M49 168H42" stroke="#666666" stroke-width="0.5"/>
<path id="Vector_446" d="M49 160.5H42" stroke="#666666" stroke-width="0.5"/>
<path id="Vector_447" d="M49 153H42" stroke="#666666" stroke-width="0.5"/>
<path id="Vector_448" d="M49 145.5H42" stroke="#666666" stroke-width="0.5"/>
<path id="Vector_449" d="M49 138H42" stroke="#666666" stroke-width="0.5"/>
<path id="Vector_450" d="M49 130.5H42" stroke="#666666" stroke-width="0.5"/>
<path id="Vector_451" d="M49 123H42" stroke="#666666" stroke-width="0.5"/>
<path id="Vector_452" d="M49 115.5H42" stroke="#666666" stroke-width="0.5"/>
<path id="Vector_453" d="M49 108H42" stroke="#666666" stroke-width="0.5"/>
<path id="Vector_454" d="M49 100.5H42" stroke="#666666" stroke-width="0.5"/>
<path id="Vector_455" d="M49 93H42" stroke="#666666" stroke-width="0.5"/>
<path id="Vector_456" d="M49 85.5H42" stroke="#666666" stroke-width="0.5"/>
<path id="Vector_457" d="M49 78H42" stroke="#666666" stroke-width="0.5"/>
<path id="Vector_458" d="M49 70.5H42" stroke="#666666" stroke-width="0.5"/>
<path id="Vector_459" d="M49 63H42" stroke="#666666" stroke-width="0.5"/>
<path id="Vector_460" d="M49 55.5H42" stroke="#666666" stroke-width="0.5"/>
<path id="Vector_461" d="M49 48H42" stroke="#666666" stroke-width="0.5"/>
<path id="Vector_462" d="M49 40.5H42" stroke="#666666" stroke-width="0.5"/>
<path id="Vector_463" d="M49 33H42" stroke="#666666" stroke-width="0.5"/>
<path id="Vector_464" d="M49 25.5H42" stroke="#666666" stroke-width="0.5"/>
<path id="Vector_465" d="M49 18H42" stroke="#666666" stroke-width="0.5"/>
<path id="Vector_466" d="M47 219L42 219" stroke="#666666" stroke-width="0.5"/>
<path id="Vector_467" d="M47 219L42 219" stroke="#666666" stroke-width="0.5"/>
<path id="Vector_468" d="M47 211.5L42 211.5" stroke="#666666" stroke-width="0.5"/>
<path id="Vector_469" d="M47 204L42 204" stroke="#666666" stroke-width="0.5"/>
<path id="Vector_470" d="M47 196.5L42 196.5" stroke="#666666" stroke-width="0.5"/>
<path id="Vector_471" d="M47 189L42 189" stroke="#666666" stroke-width="0.5"/>
<path id="Vector_472" d="M47 181.5L42 181.5" stroke="#666666" stroke-width="0.5"/>
<path id="Vector_473" d="M47 174L42 174" stroke="#666666" stroke-width="0.5"/>
<path id="Vector_474" d="M47 166.5L42 166.5" stroke="#666666" stroke-width="0.5"/>
<path id="Vector_475" d="M47 159L42 159" stroke="#666666" stroke-width="0.5"/>
<path id="Vector_476" d="M47 151.5L42 151.5" stroke="#666666" stroke-width="0.5"/>
<path id="Vector_477" d="M47 144L42 144" stroke="#666666" stroke-width="0.5"/>
<path id="Vector_478" d="M47 136.5L42 136.5" stroke="#666666" stroke-width="0.5"/>
<path id="Vector_479" d="M47 129L42 129" stroke="#666666" stroke-width="0.5"/>
<path id="Vector_480" d="M47 121.5L42 121.5" stroke="#666666" stroke-width="0.5"/>
<path id="Vector_481" d="M47 114L42 114" stroke="#666666" stroke-width="0.5"/>
<path id="Vector_482" d="M47 106.5L42 106.5" stroke="#666666" stroke-width="0.5"/>
<path id="Vector_483" d="M47 99L42 99" stroke="#666666" stroke-width="0.5"/>
<path id="Vector_484" d="M47 91.5L42 91.5" stroke="#666666" stroke-width="0.5"/>
<path id="Vector_485" d="M47 84L42 84" stroke="#666666" stroke-width="0.5"/>
<path id="Vector_486" d="M47 76.5L42 76.5" stroke="#666666" stroke-width="0.5"/>
<path id="Vector_487" d="M47 69L42 69" stroke="#666666" stroke-width="0.5"/>
<path id="Vector_488" d="M47 61.5L42 61.5" stroke="#666666" stroke-width="0.5"/>
<path id="Vector_489" d="M47 54L42 54" stroke="#666666" stroke-width="0.5"/>
<path id="Vector_490" d="M47 46.5L42 46.5" stroke="#666666" stroke-width="0.5"/>
<path id="Vector_491" d="M47 39L42 39" stroke="#666666" stroke-width="0.5"/>
<path id="Vector_492" d="M47 31.5L42 31.5" stroke="#666666" stroke-width="0.5"/>
<path id="Vector_493" d="M47 24L42 24" stroke="#666666" stroke-width="0.5"/>
<path id="Vector_494" d="M47 16.5L42 16.5" stroke="#666666" stroke-width="0.5"/>
<path id="Vector_495" d="M47 217.5L42 217.5" stroke="#666666" stroke-width="0.5"/>
<path id="Vector_496" d="M47 217.5L42 217.5" stroke="#666666" stroke-width="0.5"/>
<path id="Vector_497" d="M47 210L42 210" stroke="#666666" stroke-width="0.5"/>
<path id="Vector_498" d="M47 202.5L42 202.5" stroke="#666666" stroke-width="0.5"/>
<path id="Vector_499" d="M47 195L42 195" stroke="#666666" stroke-width="0.5"/>
<path id="Vector_500" d="M47 187.5L42 187.5" stroke="#666666" stroke-width="0.5"/>
<path id="Vector_501" d="M47 180L42 180" stroke="#666666" stroke-width="0.5"/>
<path id="Vector_502" d="M47 172.5L42 172.5" stroke="#666666" stroke-width="0.5"/>
<path id="Vector_503" d="M47 165L42 165" stroke="#666666" stroke-width="0.5"/>
<path id="Vector_504" d="M47 157.5L42 157.5" stroke="#666666" stroke-width="0.5"/>
<path id="Vector_505" d="M47 150L42 150" stroke="#666666" stroke-width="0.5"/>
<path id="Vector_506" d="M47 142.5L42 142.5" stroke="#666666" stroke-width="0.5"/>
<path id="Vector_507" d="M47 135L42 135" stroke="#666666" stroke-width="0.5"/>
<path id="Vector_508" d="M47 127.5L42 127.5" stroke="#666666" stroke-width="0.5"/>
<path id="Vector_509" d="M47 120L42 120" stroke="#666666" stroke-width="0.5"/>
<path id="Vector_510" d="M47 112.5L42 112.5" stroke="#666666" stroke-width="0.5"/>
<path id="Vector_511" d="M47 105L42 105" stroke="#666666" stroke-width="0.5"/>
<path id="Vector_512" d="M47 97.5L42 97.5" stroke="#666666" stroke-width="0.5"/>
<path id="Vector_513" d="M47 90L42 90" stroke="#666666" stroke-width="0.5"/>
<path id="Vector_514" d="M47 82.5L42 82.5" stroke="#666666" stroke-width="0.5"/>
<path id="Vector_515" d="M47 75L42 75" stroke="#666666" stroke-width="0.5"/>
<path id="Vector_516" d="M47 67.5L42 67.5" stroke="#666666" stroke-width="0.5"/>
<path id="Vector_517" d="M47 60L42 60" stroke="#666666" stroke-width="0.5"/>
<path id="Vector_518" d="M47 52.5L42 52.5" stroke="#666666" stroke-width="0.5"/>
<path id="Vector_519" d="M47 45L42 45" stroke="#666666" stroke-width="0.5"/>
<path id="Vector_520" d="M47 37.5L42 37.5" stroke="#666666" stroke-width="0.5"/>
<path id="Vector_521" d="M47 30L42 30" stroke="#666666" stroke-width="0.5"/>
<path id="Vector_522" d="M47 22.5L42 22.5" stroke="#666666" stroke-width="0.5"/>
<path id="Vector_523" d="M47 15L42 15" stroke="#666666" stroke-width="0.5"/>
<path id="Vector_524" d="M47 216L42 216" stroke="#666666" stroke-width="0.5"/>
<path id="Vector_525" d="M47 216L42 216" stroke="#666666" stroke-width="0.5"/>
<path id="Vector_526" d="M47 208.5L42 208.5" stroke="#666666" stroke-width="0.5"/>
<path id="Vector_527" d="M47 201L42 201" stroke="#666666" stroke-width="0.5"/>
<path id="Vector_528" d="M47 193.5L42 193.5" stroke="#666666" stroke-width="0.5"/>
<path id="Vector_529" d="M47 186L42 186" stroke="#666666" stroke-width="0.5"/>
<path id="Vector_530" d="M47 178.5L42 178.5" stroke="#666666" stroke-width="0.5"/>
<path id="Vector_531" d="M47 171L42 171" stroke="#666666" stroke-width="0.5"/>
<path id="Vector_532" d="M47 163.5L42 163.5" stroke="#666666" stroke-width="0.5"/>
<path id="Vector_533" d="M47 156L42 156" stroke="#666666" stroke-width="0.5"/>
<path id="Vector_534" d="M47 148.5L42 148.5" stroke="#666666" stroke-width="0.5"/>
<path id="Vector_535" d="M47 141L42 141" stroke="#666666" stroke-width="0.5"/>
<path id="Vector_536" d="M47 133.5L42 133.5" stroke="#666666" stroke-width="0.5"/>
<path id="Vector_537" d="M47 126L42 126" stroke="#666666" stroke-width="0.5"/>
<path id="Vector_538" d="M47 118.5L42 118.5" stroke="#666666" stroke-width="0.5"/>
<path id="Vector_539" d="M47 111L42 111" stroke="#666666" stroke-width="0.5"/>
<path id="Vector_540" d="M47 103.5L42 103.5" stroke="#666666" stroke-width="0.5"/>
<path id="Vector_541" d="M47 96L42 96" stroke="#666666" stroke-width="0.5"/>
<path id="Vector_542" d="M47 88.5L42 88.5" stroke="#666666" stroke-width="0.5"/>
<path id="Vector_543" d="M47 81L42 81" stroke="#666666" stroke-width="0.5"/>
<path id="Vector_544" d="M47 73.5L42 73.5" stroke="#666666" stroke-width="0.5"/>
<path id="Vector_545" d="M47 66L42 66" stroke="#666666" stroke-width="0.5"/>
<path id="Vector_546" d="M47 58.5L42 58.5" stroke="#666666" stroke-width="0.5"/>
<path id="Vector_547" d="M47 51L42 51" stroke="#666666" stroke-width="0.5"/>
<path id="Vector_548" d="M47 43.5L42 43.5" stroke="#666666" stroke-width="0.5"/>
<path id="Vector_549" d="M47 36L42 36" stroke="#666666" stroke-width="0.5"/>
<path id="Vector_550" d="M47 28.5L42 28.5" stroke="#666666" stroke-width="0.5"/>
<path id="Vector_551" d="M47 21L42 21" stroke="#666666" stroke-width="0.5"/>
<path id="Vector_552" d="M47 13.5L42 13.5" stroke="#666666" stroke-width="0.5"/>
<path id="Vector_553" d="M47 214.5L42 214.5" stroke="#666666" stroke-width="0.5"/>
<path id="Vector_554" d="M47 214.5L42 214.5" stroke="#666666" stroke-width="0.5"/>
<path id="Vector_555" d="M47 207L42 207" stroke="#666666" stroke-width="0.5"/>
<path id="Vector_556" d="M47 199.5L42 199.5" stroke="#666666" stroke-width="0.5"/>
<path id="Vector_557" d="M47 192L42 192" stroke="#666666" stroke-width="0.5"/>
<path id="Vector_558" d="M47 184.5L42 184.5" stroke="#666666" stroke-width="0.5"/>
<path id="Vector_559" d="M47 177L42 177" stroke="#666666" stroke-width="0.5"/>
<path id="Vector_560" d="M47 169.5L42 169.5" stroke="#666666" stroke-width="0.5"/>
<path id="Vector_561" d="M47 162L42 162" stroke="#666666" stroke-width="0.5"/>
<path id="Vector_562" d="M47 154.5L42 154.5" stroke="#666666" stroke-width="0.5"/>
<path id="Vector_563" d="M47 147L42 147" stroke="#666666" stroke-width="0.5"/>
<path id="Vector_564" d="M47 139.5L42 139.5" stroke="#666666" stroke-width="0.5"/>
<path id="Vector_565" d="M47 132L42 132" stroke="#666666" stroke-width="0.5"/>
<path id="Vector_566" d="M47 124.5L42 124.5" stroke="#666666" stroke-width="0.5"/>
<path id="Vector_567" d="M47 117L42 117" stroke="#666666" stroke-width="0.5"/>
<path id="Vector_568" d="M47 109.5L42 109.5" stroke="#666666" stroke-width="0.5"/>
<path id="Vector_569" d="M47 102L42 102" stroke="#666666" stroke-width="0.5"/>
<path id="Vector_570" d="M47 94.5L42 94.5" stroke="#666666" stroke-width="0.5"/>
<path id="Vector_571" d="M47 87L42 87" stroke="#666666" stroke-width="0.5"/>
<path id="Vector_572" d="M47 79.5L42 79.5" stroke="#666666" stroke-width="0.5"/>
<path id="Vector_573" d="M47 72L42 72" stroke="#666666" stroke-width="0.5"/>
<path id="Vector_574" d="M47 64.5L42 64.5" stroke="#666666" stroke-width="0.5"/>
<path id="Vector_575" d="M47 57L42 57" stroke="#666666" stroke-width="0.5"/>
<path id="Vector_576" d="M47 49.5L42 49.5" stroke="#666666" stroke-width="0.5"/>
<path id="Vector_577" d="M47 42L42 42" stroke="#666666" stroke-width="0.5"/>
<path id="Vector_578" d="M47 34.5L42 34.5" stroke="#666666" stroke-width="0.5"/>
<path id="Vector_579" d="M47 27L42 27" stroke="#666666" stroke-width="0.5"/>
<path id="Vector_580" d="M47 19.5L42 19.5" stroke="#666666" stroke-width="0.5"/>
<path id="Vector_581" d="M47 12L42 12" stroke="#666666" stroke-width="0.5"/>
</g>
</g>
</g>
</g>
</g>
</svg>
